<svg width="40" height="40" viewBox="0 0 40 40" fill="none" xmlns="http://www.w3.org/2000/svg">
<path d="M20 33.3333C23.5362 33.3333 26.9276 31.9286 29.4281 29.4281C31.9286 26.9276 33.3333 23.5362 33.3333 20C33.3333 16.4638 31.9286 13.0724 29.4281 10.5719C26.9276 8.07143 23.5362 6.66668 20 6.66668C16.4638 6.66668 13.0724 8.07143 10.5719 10.5719C8.07142 13.0724 6.66667 16.4638 6.66667 20C6.66667 23.5362 8.07142 26.9276 10.5719 29.4281C13.0724 31.9286 16.4638 33.3333 20 33.3333ZM20 3.33334C22.1887 3.33334 24.356 3.76444 26.3781 4.60202C28.4001 5.4396 30.2375 6.66725 31.7851 8.2149C33.3328 9.76254 34.5604 11.5999 35.398 13.622C36.2356 15.644 36.6667 17.8113 36.6667 20C36.6667 24.4203 34.9107 28.6595 31.7851 31.7851C28.6595 34.9107 24.4203 36.6667 20 36.6667C10.7833 36.6667 3.33333 29.1667 3.33333 20C3.33333 15.5797 5.08928 11.3405 8.21489 8.2149C11.3405 5.08929 15.5797 3.33334 20 3.33334ZM20.8333 11.6667V20.4167L28.3333 24.8667L27.0833 26.9167L18.3333 21.6667V11.6667H20.8333Z" fill="#C3C1C1"/>
<rect x="0.5" y="0.5" width="39" height="39" stroke="black"/>
</svg>
